<svg id="Group_17043" data-name="Group 17043" xmlns="http://www.w3.org/2000/svg" width="29" height="29" viewBox="0 0 29 29">
  <circle id="Ellipse_761" data-name="Ellipse 761" cx="14.5" cy="14.5" r="14.5" fill="#447365"/>
  <g id="Group_17042" data-name="Group 17042" transform="matrix(-0.574, -0.819, 0.819, -0.574, 11.011, 22.425)">
    <path id="Path_15961" data-name="Path 15961" d="M4.369,14.416a.734.734,0,0,0,.451-.177l3.713-3.495a.75.75,0,0,0,.055-.956.683.683,0,0,0-.956.007L5.025,12.252V.655a.655.655,0,0,0-1.311,0v11.6L1.107,9.795a.722.722,0,0,0-.956-.007.741.741,0,0,0,.055.956l3.713,3.495a.63.63,0,0,0,.451.177Z" transform="translate(0 0)" fill="#fefff9"/>
  </g>
</svg>
