<svg width="78" height="78" viewBox="0 0 78 78" fill="none" xmlns="http://www.w3.org/2000/svg">
<g clip-path="url(#clip0_355_403)">
<path d="M77.1064 16.4012C76.4729 27.0493 72.0305 35.3372 63.4382 41.3468C62.2404 42.1848 61.0964 42.2028 59.8934 41.3468C51.4088 35.3885 46.769 27.2518 46.2996 16.8958C45.9303 8.72833 51.8295 2.10875 60.1063 1.04265C67.6368 0.0713752 75.0519 5.4685 76.7293 13.1849C76.9755 14.3176 77.0038 15.4837 77.1064 16.4012ZM66.7776 16.3755C66.7802 15.3613 66.4814 14.369 65.9193 13.5245C65.3571 12.6799 64.5569 12.021 63.6198 11.6311C62.6827 11.2412 61.6509 11.1379 60.655 11.3342C59.6591 11.5305 58.7438 12.0176 58.0251 12.7339C57.3065 13.4502 56.8166 14.3635 56.6176 15.3581C56.4186 16.3527 56.5195 17.3839 56.9074 18.3212C57.2953 19.2585 57.9528 20.0597 58.7966 20.6235C59.6405 21.1872 60.6328 21.4882 61.6479 21.4882C63.0043 21.4848 64.3044 20.9462 65.2651 19.9896C66.2259 19.033 66.7695 17.7359 66.7776 16.3807V16.3755Z" fill="#888888"/>
<path d="M30.9337 52.2795C30.3027 62.9533 25.8424 71.2745 17.186 77.2866C16.0266 78.0939 14.9033 78.076 13.7491 77.2687C5.33116 71.3898 0.709235 63.33 0.129574 53.0919C-0.316713 45.1935 5.49008 38.228 12.8769 37.0671C20.828 35.8293 28.6637 40.7292 30.5463 49.0504C30.7977 50.1729 30.826 51.3389 30.9337 52.2795ZM15.429 47.154C14.4139 47.1627 13.4243 47.4721 12.5854 48.043C11.7464 48.6139 11.0958 49.4207 10.7159 50.3613C10.3361 51.3018 10.244 52.3339 10.4514 53.3267C10.6589 54.3196 11.1565 55.2286 11.8813 55.9387C12.606 56.6489 13.5253 57.1282 14.5228 57.3161C15.5203 57.5039 16.5513 57.3919 17.485 56.994C18.4188 56.5962 19.2133 55.9305 19.7682 55.0812C20.3232 54.232 20.6135 53.2373 20.6023 52.2231C20.5874 50.8659 20.0345 49.5701 19.0647 48.6198C18.0948 47.6695 16.7873 47.1424 15.429 47.154Z" fill="#888888"/>
<path d="M24.834 77.8045C26.2062 76.2181 27.4784 74.6728 28.8506 73.2248C29.1558 72.9019 29.8201 72.7943 30.3203 72.7918C39.8103 72.7687 49.3004 72.7917 58.7776 72.7687C62.748 72.7687 65.8566 70.3213 66.5799 66.7027C67.5545 61.8335 64.0919 57.4768 59.1007 57.4128C54.8276 57.3589 50.5545 57.4127 46.2763 57.3922C41.6134 57.3615 37.7276 54.4169 36.3683 49.9321C35.1243 45.8317 36.8043 41.2342 40.4721 38.6715C42.6009 37.1851 44.9964 36.7468 47.528 36.9006C47.8473 36.9593 48.1359 37.1279 48.3436 37.3773C49.6492 38.838 50.9264 40.327 52.3038 41.9108C51.9936 41.9599 51.6812 41.9933 51.3676 42.0107C49.7441 42.0107 48.1205 42.0107 46.4944 42.0107C43.3806 42.0466 41.1082 44.2428 41.1338 47.172C41.1569 50.0526 43.4037 52.2283 46.4482 52.2488C50.6776 52.277 54.9122 52.2335 59.1391 52.2488C61.9165 52.2518 64.6169 53.1608 66.8299 54.8376C69.0428 56.5145 70.6473 58.8674 71.3993 61.5388C73.7205 69.4474 67.8931 77.7225 59.6445 77.8403C48.1513 78.0044 36.6555 77.8839 25.1597 77.8813C25.0489 77.8664 24.9398 77.8407 24.834 77.8045Z" fill="#888888"/>
</g>
<defs>
<clipPath id="clip0_355_403">
<rect width="77" height="77" fill="white" transform="translate(0.106445 0.945312)"/>
</clipPath>
</defs>
</svg>
