<svg width="56" height="60" viewBox="0 0 56 60" fill="none" xmlns="http://www.w3.org/2000/svg">
<g clip-path="url(#clip0_355_377)">
<path d="M0.00390625 22.0427H55.9976V23.1716C55.9976 33.3528 55.9976 43.5326 55.9976 53.711C55.9976 57.7359 53.7727 59.939 49.7453 59.9411H6.25624C2.22668 59.9411 0.0102131 57.738 0.00811219 53.7068C0.00811219 43.5256 0.00811219 33.3458 0.00811219 23.1674L0.00390625 22.0427ZM8.42441 33.1886C8.42441 33.7151 8.3992 34.2416 8.42441 34.7661C8.51685 36.331 9.53575 37.3545 11.1114 37.4219C12.1241 37.4641 13.141 37.4662 14.1515 37.4219C15.5276 37.3524 16.4961 36.5795 16.6726 35.1957C16.8225 33.9469 16.8316 32.685 16.6999 31.4341C16.5591 30.0735 15.7398 29.2753 14.3742 29.1173C13.1942 28.9867 12.0036 28.9867 10.8236 29.1173C9.32358 29.2858 8.49584 30.3179 8.42441 31.8301C8.4055 32.2766 8.42441 32.7336 8.42441 33.1886ZM47.5834 33.2223C47.5834 32.7652 47.6002 32.3103 47.5834 31.8554C47.5162 30.3179 46.7178 29.2985 45.2136 29.1173C44.0337 28.9857 42.8429 28.9857 41.663 29.1173C40.2659 29.2648 39.4276 30.1051 39.2827 31.5057C39.1545 32.689 39.1587 33.8829 39.2953 35.0651C39.4739 36.5732 40.4928 37.3819 42.0265 37.4388C42.8984 37.4704 43.7745 37.4662 44.6484 37.4388C46.5393 37.3925 47.5393 36.3857 47.5897 34.4902C47.5939 34.0626 47.5834 33.6435 47.5834 33.2223ZM43.3669 44.5197C42.9131 44.5197 42.4572 44.5029 42.0034 44.5197C40.4508 44.5892 39.4235 45.4506 39.2554 47.0071C39.1398 48.1232 39.1398 49.2483 39.2554 50.3643C39.4025 51.8386 40.3059 52.7274 41.7765 52.8707C42.8896 52.9827 44.0112 52.9777 45.1232 52.8559C46.68 52.679 47.5267 51.6554 47.5834 50.0821C47.6128 49.208 47.6086 48.3298 47.5834 47.4536C47.5372 45.5728 46.514 44.564 44.6421 44.505C44.2072 44.5113 43.787 44.5197 43.3669 44.5197ZM8.42861 48.671C8.42861 49.128 8.41391 49.5829 8.42861 50.04C8.48744 51.6638 9.34881 52.7085 10.9497 52.8749C12.0623 52.9918 13.1839 52.9918 14.2965 52.8749C15.7335 52.7232 16.6075 51.866 16.7482 50.4275C16.8684 49.2442 16.8571 48.0511 16.7146 46.8702C16.5339 45.3959 15.5381 44.5976 14.0611 44.5408C13.0821 44.5029 12.101 44.5008 11.1199 44.5408C9.54626 44.6103 8.53152 45.6339 8.44118 47.203C8.40546 47.6895 8.42861 48.1802 8.42861 48.671ZM27.9944 37.4388C28.3432 37.4388 28.6941 37.4388 29.0449 37.4388C31.1353 37.4072 32.1795 36.3499 32.1963 34.248C32.1963 33.4413 32.2215 32.6325 32.1963 31.828C32.1375 30.381 31.3055 29.3174 29.8853 29.1426C28.6733 28.9924 27.448 28.9832 26.2339 29.1152C24.7107 29.2858 23.8641 30.3789 23.8157 31.9375C23.801 32.3587 23.8368 32.78 23.8157 33.2012C23.5825 36.4152 24.6939 37.6873 27.9944 37.4388ZM28.028 44.5197C27.6415 44.5197 27.257 44.5197 26.8725 44.5197C24.8536 44.5576 23.8094 45.6234 23.7947 47.679C23.7947 48.4856 23.7716 49.2923 23.7947 50.0968C23.8472 51.588 24.7023 52.6643 26.1793 52.8349C27.3583 52.9753 28.5495 52.9809 29.7298 52.8517C31.2572 52.6832 32.1332 51.588 32.1816 50.0568C32.2089 49.1807 32.2026 48.3024 32.1816 47.4262C32.1395 45.6507 31.0681 44.5829 29.2823 44.5239C28.8747 44.5092 28.4545 44.5218 28.0365 44.5197H28.028Z" fill="#888888"/>
<path d="M55.866 19.1783H0.00462589V16.5308C0.00462589 14.7385 -0.00797963 12.9503 0.00462589 11.158C0.0382406 7.1247 2.86607 4.70682 6.97967 5.27549C6.85781 7.4343 7.25281 9.44991 9.0554 10.9158C10.0937 11.771 11.4105 12.2113 12.753 12.1521C16.0977 12.0573 17.7721 9.98066 18.2427 5.2481H37.8233C37.6909 7.53961 38.1132 9.64577 40.1175 11.1011C41.2351 11.909 42.6111 12.2743 43.9811 12.1268C47.1325 11.872 48.8279 9.59945 49.0422 5.33446C51.9477 4.50885 55.4668 6.45494 55.7882 9.48992C56.1265 12.6639 55.866 15.899 55.866 19.1783Z" fill="#888888"/>
<path d="M15.389 5.17237C15.389 5.69681 15.4226 6.22545 15.389 6.74567C15.3492 7.4344 15.0561 8.08388 14.5664 8.56859C14.0767 9.05329 13.4251 9.33881 12.7376 9.36996C11.3531 9.44788 10.0821 8.55487 9.9098 7.12268C9.75012 5.81049 9.75012 4.48371 9.9098 3.17151C10.0863 1.74564 11.3805 0.854735 12.7545 0.949513C13.4226 0.987127 14.0549 1.26516 14.535 1.73255C15.0151 2.19994 15.3109 2.82529 15.368 3.49375C15.4205 4.04767 15.368 4.61212 15.368 5.17868L15.389 5.17237Z" fill="#888888"/>
<path d="M40.6174 5.08404C40.6174 4.55961 40.5774 4.03095 40.6174 3.51073C40.6712 2.84015 40.9645 2.21156 41.4434 1.74032C41.9223 1.26909 42.5548 0.986852 43.2246 0.945422C44.6091 0.850644 45.9033 1.73312 46.0818 3.15057C46.2468 4.46288 46.251 5.7905 46.0944 7.10385C45.9158 8.57816 44.5923 9.48593 43.1763 9.36166C42.4915 9.30492 41.8516 8.99703 41.3791 8.49692C40.9066 7.99681 40.6346 7.33959 40.6152 6.65103C40.5858 6.1287 40.6152 5.59794 40.6152 5.07772L40.6174 5.08404Z" fill="#888888"/>
</g>
<defs>
<clipPath id="clip0_355_377">
<rect width="56" height="59" fill="white" transform="translate(0 0.945312)"/>
</clipPath>
</defs>
</svg>
