<svg width="74" height="76" viewBox="0 0 74 76" fill="none" xmlns="http://www.w3.org/2000/svg">
<g clip-path="url(#clip0_355_382)">
<path d="M53.9589 35.3049C57.9197 35.2998 61.7931 36.4868 65.0891 38.7157C68.3851 40.9446 70.9558 44.1153 72.476 47.8269C73.9961 51.5384 74.3976 55.6241 73.6295 59.5671C72.8613 63.5102 70.9582 67.1336 68.1607 69.979C65.3632 72.8244 61.797 74.764 57.9131 75.5526C54.0293 76.3412 50.0023 75.9433 46.3413 74.4092C42.6803 72.8751 39.5498 70.2738 37.3458 66.9342C35.1417 63.5946 33.9631 59.6667 33.959 55.6474C33.9539 52.9784 34.4673 50.3347 35.47 47.8673C36.4727 45.4 37.9449 43.1574 39.8025 41.268C41.6601 39.3786 43.8666 37.8794 46.2957 36.8562C48.7248 35.833 51.3288 35.3059 53.9589 35.3049ZM50.7003 58.5038C49.4916 57.228 48.4193 56.0531 47.3007 54.925C46.2515 53.8673 44.8256 53.8017 43.8989 54.7046C42.9721 55.6075 42.9883 57.1248 44.0653 58.2388C45.6298 59.8547 47.2175 61.4518 48.7983 63.0536C50.3791 64.6553 51.5877 64.6131 53.0599 62.8917C56.0627 59.3786 59.0625 55.8608 62.0592 52.3383C63.395 50.774 63.5128 49.3247 62.3873 48.3514C61.2618 47.3781 59.9468 47.6478 58.5533 49.2895C55.9741 52.3031 53.4158 55.3073 50.7003 58.5038Z" fill="#888888"/>
<path d="M28.5741 62.5542L19.2444 57.6903C13.5361 54.7142 7.84855 51.6982 2.11251 48.7784C0.608009 48.0162 -0.0136397 47.0172 0.000226592 45.2981C0.060314 36.9374 0.0279299 28.5767 0.0279299 20.216V18.823C0.450853 18.9989 0.769781 19.1138 1.07022 19.2616C4.22019 20.8024 7.35401 22.376 10.5178 23.8816C11.3128 24.2592 11.6456 24.686 11.6202 25.6288C11.5416 28.4008 11.5878 31.1776 11.5925 33.9496C11.5925 35.7508 12.4776 36.7897 13.9567 36.7639C15.371 36.7358 16.2007 35.7086 16.2053 33.9496C16.2053 31.6208 16.2053 29.292 16.2053 26.7686C17.0558 27.1767 17.7376 27.5003 18.417 27.8333C21.5277 29.3647 24.6291 30.9149 27.7537 32.4159C28.3846 32.7207 28.6642 33.0561 28.655 33.8089C28.5995 38.6143 28.6435 43.4243 28.5556 48.225C28.5279 49.6157 28.1628 50.997 27.9756 52.3854C27.5923 55.4526 27.7488 58.5646 28.4378 61.5763C28.4886 61.8061 28.5048 62.0336 28.5741 62.5542Z" fill="#888888"/>
<path d="M59.3479 14.6882C56.8612 15.9335 54.6056 17.0756 52.3407 18.206C45.5416 21.5761 38.7333 24.9274 31.9457 28.321C31.6234 28.5095 31.258 28.6087 30.8861 28.6087C30.5141 28.6087 30.1487 28.5095 29.8265 28.321C26.1866 26.4706 22.5166 24.6835 18.7334 22.8097C19.1378 22.5752 19.4406 22.3805 19.7595 22.2163C28.4367 17.7745 37.114 13.3303 45.7912 8.8838C46.0636 8.71777 46.3749 8.62869 46.6927 8.6258C47.0104 8.62292 47.3231 8.70632 47.5985 8.86737C51.4048 10.7904 55.2458 12.6643 59.3479 14.6882Z" fill="#888888"/>
<path d="M2.41992 14.6554L19.5864 6.17505C22.8358 4.57092 26.0944 2.99258 29.3252 1.35327C30.3398 0.837325 31.248 0.795134 32.2764 1.31812C34.9896 2.69945 37.7374 4.01041 40.4691 5.35188C40.7372 5.48555 40.9868 5.65676 41.3681 5.8819C38.1743 7.52355 35.1052 9.11126 32.0314 10.6872C26.1637 13.6915 20.289 16.6769 14.4351 19.7023C14.1481 19.879 13.8198 19.9746 13.4841 19.9791C13.1484 19.9837 12.8177 19.897 12.5262 19.7281C9.43166 18.1615 6.30709 16.6558 3.1964 15.1244C2.99765 15.0259 2.81973 14.8946 2.41992 14.6554Z" fill="#888888"/>
<path d="M61.6702 18.9238V30.1105C50.48 27.2376 41.0717 30.209 33.265 39.1912C33.265 37.0547 33.2419 35.1269 33.2928 33.2038C33.2928 32.9693 33.6579 32.641 33.926 32.5003C42.9299 28.0319 51.943 23.576 60.9653 19.1326C61.195 19.0458 61.4305 18.9761 61.6702 18.9238Z" fill="#888888"/>
</g>
<defs>
<clipPath id="clip0_355_382">
<rect width="74" height="75" fill="white" transform="translate(0 0.945312)"/>
</clipPath>
</defs>
</svg>
