<svg width="73" height="56" viewBox="0 0 73 56" fill="none" xmlns="http://www.w3.org/2000/svg">
<g clip-path="url(#clip0_355_388)">
<path d="M24.5685 33.0126C17.4057 33.0126 10.2478 33.0126 3.0952 33.0126C0.751912 33.0126 0.0407397 32.326 0.0253906 30.0355C0.0253906 21.3479 0.0253906 12.6661 0.0253906 3.9902C0.0253906 1.67712 0.792812 0.952881 3.19238 0.952881C17.4636 0.952881 31.7365 0.952881 46.0111 0.952881C48.403 0.952881 49.1321 1.67714 49.1346 4.03532C49.1346 12.6728 49.1346 21.3119 49.1346 29.9527C49.1346 32.351 48.4541 33.0126 46.029 33.0126C38.8797 33.016 31.7263 33.016 24.5685 33.0126Z" fill="#888888"/>
<path d="M44.5937 46.7082H27.9426C26.7761 42.1973 23.9237 39.2753 19.4443 37.6313H45.7935C51.0761 37.6313 53.8365 34.9298 53.839 29.7749C53.839 24.4738 53.839 19.1727 53.839 13.8716V12.6687C59.9786 11.3355 64.5833 13.8214 68.615 17.801C69.3338 18.5102 70.022 19.2545 70.6846 20.0164C72.2553 21.8207 73.0687 23.818 73.0073 26.2815C72.8692 31.9977 72.9639 37.719 72.9613 43.4378C72.9613 46.1493 72.3397 46.7608 69.5974 46.7633H67.8067C65.9699 40.8566 62.0431 37.3582 55.6988 37.5787C49.8227 37.7817 46.1977 41.2199 44.5937 46.7082ZM69.0294 29.5042C69.7585 22.8833 63.2735 16.5004 57.7735 18.2972V29.5042H69.0294Z" fill="#888888"/>
<path d="M23.4537 49.0387C23.4421 50.4022 23.0186 51.7318 22.2365 52.8599C21.4545 53.9879 20.3491 54.8638 19.0596 55.3772C17.77 55.8906 16.3542 56.0183 14.9906 55.7445C13.627 55.4706 12.3768 54.8073 11.3975 53.8382C10.4183 52.8692 9.75378 51.6377 9.48802 50.2992C9.22227 48.9607 9.36715 47.5751 9.90423 46.3171C10.4413 45.0592 11.3465 43.9851 12.5059 43.2305C13.6652 42.4759 15.0268 42.0745 16.4187 42.0769C17.3475 42.0805 18.2666 42.2636 19.1231 42.6156C19.9797 42.9676 20.7569 43.4816 21.4104 44.1283C22.0638 44.7749 22.5807 45.5415 22.9313 46.3841C23.2819 47.2267 23.4594 48.1288 23.4537 49.0387Z" fill="#888888"/>
<path d="M63.1969 49.0436C63.1985 49.9517 63.0169 50.8511 62.6625 51.6902C62.3081 52.5292 61.7879 53.2914 61.1317 53.9328C60.4755 54.5742 59.6964 55.0822 58.8391 55.4276C57.9818 55.7729 57.0632 55.9488 56.1363 55.9452C55.2071 55.9424 54.2875 55.7604 53.4301 55.4094C52.5727 55.0585 51.7943 54.5455 51.1392 53.8999C50.4842 53.2543 49.9654 52.4886 49.6124 51.6465C49.2595 50.8044 49.0792 49.9025 49.0821 48.9922C49.0849 48.0819 49.2708 47.1811 49.629 46.3412C49.9873 45.5013 50.5109 44.7387 51.1699 44.097C51.829 43.4553 52.6107 42.9471 53.4703 42.6013C54.3299 42.2556 55.2505 42.079 56.1797 42.0818C58.0524 42.0944 59.8433 42.8347 61.1591 44.1401C62.4748 45.4455 63.2077 47.2091 63.1969 49.0436Z" fill="#888888"/>
<path d="M4.89618 46.648C4.81313 46.6811 4.72761 46.7079 4.64037 46.7282C0.511477 46.9788 -0.0078125 46.5127 -0.0078125 42.4504V37.5486H13.3484L13.4328 37.8543C8.9458 39.2702 6.05248 42.1597 4.89618 46.648Z" fill="#888888"/>
</g>
<defs>
<clipPath id="clip0_355_388">
<rect width="73" height="55" fill="white" transform="translate(0 0.945312)"/>
</clipPath>
</defs>
</svg>
