<svg width="51" height="68" viewBox="0 0 51 68" fill="none" xmlns="http://www.w3.org/2000/svg">
<g clip-path="url(#clip0_355_373)">
<path d="M31.7906 48.6941C29.7033 50.3612 28.0257 52.4993 26.8905 54.9395C26.8077 55.0924 26.6919 55.2241 26.5519 55.3249C26.4119 55.4256 26.2513 55.4928 26.0821 55.5214C17.4772 55.5444 8.8743 55.5214 0.269388 55.5214C0.193847 55.5025 0.120154 55.4766 0.0492628 55.444C0.034863 55.1321 0.00195312 54.7658 0.00195312 54.3975C0.00195312 38.7058 0.00195312 23.0142 0.00195312 7.3225C0.00195312 3.46308 2.44786 0.955706 6.21855 0.953613C14.4127 0.953613 22.6062 0.953613 30.799 0.953613C34.2097 0.953613 36.7893 3.37308 36.8078 6.7574C36.8572 16.4499 36.8264 26.1445 36.8264 36.1196C35.6374 34.8994 34.6397 33.7818 33.535 32.7709C32.7307 32.0383 31.8708 31.2681 30.8978 30.8433C28.3099 29.711 25.3106 30.7093 23.7205 33.0534C22.9416 34.1764 22.5653 35.5375 22.6544 36.9089C22.7435 38.2804 23.2927 39.5792 24.2101 40.5881C26.4359 43.0515 28.7501 45.4312 31.0233 47.8507C31.2639 48.0997 31.4861 48.3572 31.7906 48.6941Z" fill="#888888"/>
<path d="M40.9569 27.3271C43.8369 30.5985 47.4924 33.1728 49.3808 37.3252C51.0491 40.9942 51.3885 44.7909 50.5801 48.7424C49.4555 54.2218 48.3701 59.7102 47.3237 65.2077C46.8752 67.5498 46.4823 67.9453 44.1557 67.9453H28.6389C28.4969 65.0005 28.6389 62.1499 29.4226 59.3453C30.1714 56.6412 31.3995 54.2259 33.5122 52.3611C34.1107 51.8431 34.7617 51.3912 35.4541 51.0132C37.0669 50.1153 37.3055 48.8449 36.0198 47.4761C33.3003 44.5753 30.5712 41.6842 27.8325 38.8029C27.6268 38.5768 27.3943 38.3592 27.1907 38.1248C26.3123 37.1076 26.3184 35.8058 27.1907 34.9372C28.0629 34.0686 29.3486 34.0519 30.3113 35.0272C32.6688 37.409 34.9954 39.8222 37.3364 42.2228C38.0111 42.9156 38.6776 43.6167 39.3708 44.2927C40.2677 45.1634 41.428 45.1948 42.2117 44.3974C43.0181 43.5602 43.051 42.4007 42.0533 41.5468C40.9075 40.5693 40.638 39.4391 40.6751 37.9887C40.7656 34.4767 40.7039 30.9605 40.7039 27.4444L40.9569 27.3271Z" fill="#888888"/>
<path d="M-6.22891e-05 59.4646H25.214C24.9939 62.2838 24.7779 65.0445 24.5537 67.9014C24.3089 67.9014 23.9777 67.9432 23.6485 67.9432C17.8584 67.9432 12.069 67.9432 6.28032 67.9432C2.44174 67.9432 0.0102233 65.4547 -6.22891e-05 61.5408C-0.0021194 60.8815 -6.22891e-05 60.2223 -6.22891e-05 59.4646Z" fill="#888888"/>
</g>
<defs>
<clipPath id="clip0_355_373">
<rect width="51" height="67" fill="white" transform="translate(0 0.945312)"/>
</clipPath>
</defs>
</svg>
