<svg width="66" height="76" viewBox="0 0 66 76" fill="none" xmlns="http://www.w3.org/2000/svg">
<g clip-path="url(#clip0_355_394)">
<path d="M37.4552 57.6749V64.0553H6.55371V12.4096H13.2829C14.0903 15.0051 14.7279 15.4655 17.5125 15.4655H38.5101C40.7598 15.4655 41.3898 15.0026 42.2347 12.9173C42.3103 12.7711 42.4193 12.6447 42.5531 12.5483C42.6868 12.4519 42.8415 12.3882 43.0046 12.3623C45.0044 12.3151 46.9891 12.335 49.0788 12.335V47.6712C46.2667 47.6712 43.487 47.6712 40.7074 47.6712C38.8951 47.6712 38.4126 47.9674 37.5052 49.6073H28.6662C28.3337 49.6073 27.9987 49.6222 27.6663 49.6073C26.7714 49.5674 26.009 49.8213 25.9965 50.8316C25.984 51.8419 26.7265 52.1032 27.6314 52.1007C30.4235 52.0858 33.2157 52.1007 36.0078 52.1007H37.4502V55.1192C36.9852 55.1441 36.5452 55.1839 36.1028 55.1839C33.3131 55.1839 30.5209 55.1964 27.7288 55.1839C26.7964 55.1839 25.979 55.3929 25.994 56.4829C26.0165 57.4982 26.814 57.6848 27.6939 57.6824C30.8985 57.6674 34.1081 57.6749 37.4552 57.6749ZM15.8977 58.5483C17.1051 58.5483 18.3099 58.5235 19.5147 58.5483C20.4921 58.5732 20.9946 58.1751 20.9921 57.1697C20.9921 54.8106 20.9771 52.4541 20.9921 50.095C20.9921 49.1469 20.5196 48.7388 19.6147 48.7388C17.2475 48.7388 14.8778 48.7388 12.5105 48.7388C11.6156 48.7388 11.1358 49.1668 11.1433 50.1149C11.1633 52.474 11.1558 54.843 11.1433 57.1896C11.1433 58.1253 11.6081 58.5434 12.528 58.5384C13.6504 58.5409 14.7778 58.5483 15.9002 58.5483H15.8977ZM16.0276 27.7336C17.2325 27.7336 18.4374 27.7336 19.6447 27.7336C20.5121 27.7336 20.9796 27.3504 20.9821 26.4894C20.9821 24.049 20.9821 21.6078 20.9821 19.1658C20.9821 18.3612 20.5655 17.9622 19.7322 17.9689C17.3209 17.9788 14.9095 17.9788 12.4981 17.9689C11.5532 17.9689 11.1407 18.4068 11.1457 19.3301C11.159 21.6891 11.159 24.0474 11.1457 26.4048C11.1457 27.3404 11.6081 27.7585 12.533 27.746C13.6979 27.7237 14.8627 27.7237 16.0276 27.7237V27.7336ZM15.9376 43.1472C17.145 43.1472 18.3499 43.1248 19.5548 43.1472C20.5547 43.1746 20.9971 42.7018 20.9921 41.7263C20.9821 39.3689 20.9821 37.0106 20.9921 34.6516C20.9921 33.7856 20.5847 33.3526 19.6998 33.3551C17.2901 33.3551 14.8803 33.3551 12.4681 33.3551C11.6132 33.3551 11.1507 33.7483 11.1532 34.6341C11.1532 37.033 11.1532 39.4344 11.1532 41.8333C11.1532 42.7789 11.6531 43.1571 12.573 43.1422C13.6929 43.1347 14.8153 43.1522 15.9376 43.1522V43.1472ZM36.0303 24.4264C33.2806 24.4264 30.5309 24.4264 27.7963 24.4264C26.9039 24.4264 26.004 24.4961 25.9965 25.6234C25.9965 26.6984 26.8364 26.9249 27.7463 26.9249C33.1524 26.9249 38.5592 26.9249 43.9669 26.9249C44.8618 26.9249 45.6992 26.7407 45.6892 25.611C45.6792 24.4812 44.8594 24.4314 44.0145 24.4339L36.0303 24.4264ZM35.7803 21.2586C38.5675 21.2586 41.3572 21.2586 44.1469 21.2586C44.9843 21.2586 45.6818 21.0894 45.7018 20.0915C45.7243 19.0488 45.0243 18.7726 44.1319 18.7726C38.6325 18.7726 33.1382 18.7726 27.6488 18.7726C26.7414 18.7726 26.014 19.0638 26.009 20.0467C26.004 21.0297 26.7589 21.2761 27.6638 21.2686C30.3585 21.2537 33.0632 21.2536 35.7704 21.2536L35.7803 21.2586ZM35.8378 36.6722C38.5875 36.6722 41.3372 36.6722 44.0869 36.6722C44.9643 36.6722 45.7192 36.5129 45.7092 35.428C45.6992 34.343 44.9594 34.1837 44.077 34.1837C38.6276 34.1837 33.1774 34.1837 27.7263 34.1837C26.7764 34.1837 25.9891 34.4326 26.0216 35.5076C26.0541 36.5204 26.8514 36.6896 27.7338 36.6822C30.4185 36.6573 33.1232 36.6822 35.8279 36.6822L35.8378 36.6722ZM35.9103 39.8077C33.2081 39.8077 30.5034 39.8077 27.8013 39.8077C26.9039 39.8077 26.0165 39.9122 26.0065 41.0245C25.9965 42.1369 26.8489 42.3061 27.7563 42.3036H43.9794C44.8818 42.3036 45.7117 42.1468 45.6942 41.0021C45.6767 39.9047 44.8544 39.8151 44.0145 39.8151L35.9103 39.8077Z" fill="#888888"/>
<path d="M48.6459 50.1622V60.5465H57.3223V50.2443H65.8364C65.8589 50.7071 65.8963 51.1103 65.8963 51.5134C65.8963 58.8129 65.8963 66.1124 65.8963 73.4119C65.8963 75.4027 65.3489 75.9477 63.3966 75.9502C56.4407 75.9502 49.4841 75.9502 42.5266 75.9502C40.6118 75.9502 40.0518 75.4077 40.0493 73.5214C40.0493 66.1406 40.0493 58.7598 40.0293 51.374C40.0293 50.4931 40.2168 50.1298 41.1992 50.1447C43.6039 50.2094 46.0162 50.1622 48.6459 50.1622Z" fill="#888888"/>
<path d="M13.3574 6.79565V9.76189C13 9.78926 12.6425 9.83905 12.2875 9.84154C10.1628 9.84154 8.038 9.84154 5.91324 9.84154C4.28843 9.84154 3.96857 10.1825 3.95607 11.8323C3.95607 11.9169 3.95607 11.999 3.95607 12.0812C3.95607 29.5005 3.95607 46.9197 3.95607 64.339C3.95607 66.4094 4.14853 66.601 6.25329 66.601H37.4422V69.637C36.9748 69.6569 36.5322 69.6942 36.0923 69.6942C25.6735 69.6942 15.258 69.6942 4.84586 69.6942C2.03118 69.6942 0.903867 68.5719 0.901367 65.7823V10.6727C0.901367 7.87315 2.00376 6.79814 4.85843 6.79565H13.3574Z" fill="#888888"/>
<path d="M33.0927 4.96669C34.8275 4.96669 36.6148 5.01147 38.4021 4.94925C39.402 4.91441 39.8345 5.19811 39.792 6.26566C39.722 8.08474 39.7445 9.91127 39.792 11.7403C39.812 12.6187 39.5419 13.0019 38.5921 12.9994C31.4262 12.9696 24.2604 12.9696 17.0945 12.9994C16.1496 12.9994 15.8647 12.6411 15.8897 11.7552C15.9372 9.93116 15.9647 8.10463 15.8897 6.28058C15.8372 5.18068 16.3047 4.93185 17.2846 4.96669C18.7844 5.01895 20.2842 5.02391 21.7841 4.94925C22.174 4.92935 22.7339 4.62825 22.8889 4.30226C23.9263 2.14227 25.6011 0.888063 27.9909 0.960229C30.4306 1.03488 32.0903 2.38363 32.9102 4.69293C32.9612 4.79031 33.0224 4.88208 33.0927 4.96669ZM29.3882 5.48677V4.9169C28.8732 4.55856 28.3883 3.96383 27.8358 3.90162C26.9959 3.80706 26.441 4.44161 26.496 5.32252C26.5485 6.12879 27.0909 6.71857 27.8933 6.54686C28.4358 6.42742 28.8982 5.85506 29.3982 5.48677H29.3882Z" fill="#888888"/>
<path d="M54.7482 47.6016H51.6811V46.0712C51.6811 34.7155 51.6811 23.3606 51.6811 12.0065C51.6811 10.0755 51.456 9.84904 49.5537 9.84655C47.189 9.84655 44.8243 9.84655 42.3721 9.84655V6.84295C45.6717 6.84295 48.9513 6.74591 52.2185 6.89025C53.5458 6.94997 54.4332 7.96276 54.6982 9.33391C54.772 9.74443 54.8055 10.1612 54.7981 10.5781C54.7981 22.556 54.7981 34.5322 54.7981 46.5067C54.7981 46.8227 54.7682 47.1487 54.7482 47.6016Z" fill="#888888"/>
<path d="M15.6346 53.218C16.1596 52.5859 16.602 52.0435 17.0569 51.5109C17.5819 50.8963 18.2168 50.645 18.9117 51.185C19.6066 51.725 19.5617 52.3919 19.0443 53.0389C18.2943 53.9795 17.5445 54.9176 16.7621 55.8359C16.1246 56.5824 15.4147 56.5824 14.7122 55.9106C14.2598 55.4825 13.8324 55.0296 13.3824 54.5966C12.775 54.0143 12.4524 53.3325 13.0949 52.6432C13.7798 51.8967 14.5097 52.1455 15.1521 52.8074C15.2646 52.9219 15.3996 53.0189 15.6346 53.218Z" fill="#888888"/>
<path d="M15.6498 22.4134L17.0371 20.7361C17.5895 20.0742 18.2394 19.803 18.9643 20.4226C19.6243 20.9875 19.5343 21.6444 19.0144 22.2815C18.307 23.1475 17.6071 24.0234 16.8972 24.8819C16.7758 25.0497 16.6271 25.196 16.4572 25.3149C15.7348 25.7554 15.0674 25.5887 14.5874 24.9566C13.9125 24.0682 12.3176 23.6053 12.97 22.0973C13.12 21.7514 14.0575 21.6469 14.6425 21.622C14.9124 21.6121 15.2073 22.055 15.6498 22.4134Z" fill="#888888"/>
<path d="M15.6502 37.8245C16.2001 37.1576 16.6501 36.5802 17.15 36.0203C17.6999 35.4156 18.3524 35.2738 19.0048 35.8511C19.6022 36.3936 19.5498 37.0207 19.0698 37.6204C18.3199 38.5586 17.57 39.4917 16.7901 40.41C16.1551 41.1565 15.4402 41.1565 14.7353 40.517C14.2353 40.0716 13.7929 39.5813 13.3229 39.1135C12.7555 38.5511 12.5056 37.8942 13.098 37.2546C13.6904 36.6151 14.4254 36.7171 15.0653 37.3168C15.2028 37.4562 15.3652 37.5856 15.6502 37.8245Z" fill="#888888"/>
</g>
<defs>
<clipPath id="clip0_355_394">
<rect width="65" height="75" fill="white" transform="translate(0.896484 0.945312)"/>
</clipPath>
</defs>
</svg>
